<svg width="400" height="250" xmlns="http://www.w3.org/2000/svg" class="station-page-scene" viewBox="0 0 400 250" fill="none" focusable="false"><ellipse cx="203" cy="220" rx="142" ry="14" fill="#4b5543" opacity=".06"></ellipse><g stroke="#4b5543" stroke-width="1.8" stroke-linecap="round" stroke-linejoin="round"><g transform="rotate(-6 187 110)"><rect x="58" y="35" width="259" height="157" rx="12" fill="#faf8ef"></rect><path d="M58 65h259" opacity=".3"></path><circle cx="75" cy="50" r="3" fill="#4b5543"></circle><circle cx="89" cy="50" r="3" fill="#4b5543"></circle><circle cx="103" cy="50" r="3" fill="#4b5543"></circle><path d="m110 102-26 21 26 22m48-43 26 21-26 22m-17-54-16 65" stroke-width="3"></path><path d="M212 106h71m-71 18h51m-51 18h62" opacity=".3"></path></g><g transform="rotate(8 300 185)"><rect x="231" y="140" width="116" height="77" rx="10" fill="#dcd2e8"></rect><path d="M253 162h22v31h-22zm44 0h27v12h-27zM297 184h27"></path></g><path d="M73 211h105M343 61h18m-9-9v18"></path></g></svg>